0
SECTION
2
HEADER
9
$ACADVER
1
AC1006
0
ENDSEC
0
SECTION
2
TABLES
0
TABLE
2
LAYER
70
1
0
LAYER
70
0
62
1
6
CONTINUOUS
2
L0D0_0
0
ENDTAB
0
ENDSEC
0
SECTION
2
BLOCKS
0
ENDSEC
0
SECTION
2
ENTITIES
0
POLYLINE
8
L0D0_0
70
0
40
0.028
41
0.028
66
1
0
VERTEX
8
L0D0_0
10
1.178
20
10.22
0
VERTEX
8
L0D0_0
10
1.692
20
10.22
0
SEQEND
0
POLYLINE
8
L0D0_0
70
0
40
0.028
41
0.028
66
1
0
VERTEX
8
L0D0_0
10
1.053
20
11.68
0
VERTEX
8
L0D0_0
10
1.053
20
10.344
0
SEQEND
0
POLYLINE
8
L0D0_0
70
0
40
0.028
41
0.028
66
1
0
VERTEX
8
L0D0_0
10
0.304
20
11.141
0
VERTEX
8
L0D0_0
10
0.304
20
9.46
0
SEQEND
0
POLYLINE
8
L0D0_0
70
0
40
0.028
41
0.028
66
1
0
VERTEX
8
L0D0_0
10
1.178
20
9.471
0
VERTEX
8
L0D0_0
10
1.692
20
9.471
0
SEQEND
0
POLYLINE
8
L0D0_0
70
0
40
0.028
41
0.028
66
1
0
VERTEX
8
L0D0_0
10
1.853
20
10.578
0
VERTEX
8
L0D0_0
10
1.338
20
10.578
0
SEQEND
0
POLYLINE
8
L0D0_0
70
0
40
0.028
41
0.028
66
1
0
VERTEX
8
L0D0_0
10
1.977
20
9.118
0
VERTEX
8
L0D0_0
10
1.977
20
10.453
0
SEQEND
0
POLYLINE
8
L0D0_0
70
0
40
0.028
41
0.028
66
1
0
VERTEX
8
L0D0_0
10
2.726
20
9.656
0
VERTEX
8
L0D0_0
10
2.726
20
11.338
0
SEQEND
0
POLYLINE
8
L0D0_0
70
0
40
0.028
41
0.028
66
1
0
VERTEX
8
L0D0_0
10
1.853
20
11.327
0
VERTEX
8
L0D0_0
10
1.338
20
11.327
0
SEQEND
0
POLYLINE
8
L0D0_0
70
0
40
0.028
41
0.028
66
1
0
VERTEX
8
L0D0_0
10
2.726
20
11.369
0
VERTEX
8
L0D0_0
10
2.723
20
11.369
0
VERTEX
8
L0D0_0
10
2.715
20
11.365
0
VERTEX
8
L0D0_0
10
2.71
20
11.356
0
VERTEX
8
L0D0_0
10
2.71
20
11.354
0
VERTEX
8
L0D0_0
10
2.71
20
11.351
0
VERTEX
8
L0D0_0
10
2.715
20
11.342
0
VERTEX
8
L0D0_0
10
2.723
20
11.338
0
VERTEX
8
L0D0_0
10
2.726
20
11.338
0
SEQEND
0
POLYLINE
8
L0D0_0
70
0
40
0.028
41
0.028
66
1
0
VERTEX
8
L0D0_0
10
2.726
20
11.369
0
VERTEX
8
L0D0_0
10
2.736
20
11.367
0
VERTEX
8
L0D0_0
10
2.767
20
11.364
0
VERTEX
8
L0D0_0
10
2.816
20
11.361
0
VERTEX
8
L0D0_0
10
2.864
20
11.362
0
VERTEX
8
L0D0_0
10
2.895
20
11.365
0
VERTEX
8
L0D0_0
10
2.905
20
11.367
0
SEQEND
0
POLYLINE
8
L0D0_0
70
0
40
0.028
41
0.028
66
1
0
VERTEX
8
L0D0_0
10
2.905
20
11.367
0
VERTEX
8
L0D0_0
10
2.908
20
11.367
0
VERTEX
8
L0D0_0
10
2.918
20
11.373
0
VERTEX
8
L0D0_0
10
2.923
20
11.384
0
VERTEX
8
L0D0_0
10
2.923
20
11.386
0
SEQEND
0
POLYLINE
8
L0D0_0
70
0
40
0.028
41
0.028
66
1
0
VERTEX
8
L0D0_0
10
2.923
20
11.466
0
VERTEX
8
L0D0_0
10
2.923
20
11.386
0
SEQEND
0
POLYLINE
8
L0D0_0
70
0
40
0.028
41
0.028
66
1
0
VERTEX
8
L0D0_0
10
2.923
20
11.466
0
VERTEX
8
L0D0_0
10
2.923
20
11.47
0
VERTEX
8
L0D0_0
10
2.917
20
11.48
0
VERTEX
8
L0D0_0
10
2.906
20
11.486
0
VERTEX
8
L0D0_0
10
2.903
20
11.486
0
SEQEND
0
POLYLINE
8
L0D0_0
70
0
40
0.028
41
0.028
66
1
0
VERTEX
8
L0D0_0
10
2.726
20
11.486
0
VERTEX
8
L0D0_0
10
2.903
20
11.486
0
SEQEND
0
POLYLINE
8
L0D0_0
70
0
40
0.028
41
0.028
66
1
0
VERTEX
8
L0D0_0
10
2.726
20
11.518
0
VERTEX
8
L0D0_0
10
2.723
20
11.518
0
VERTEX
8
L0D0_0
10
2.715
20
11.513
0
VERTEX
8
L0D0_0
10
2.71
20
11.505
0
VERTEX
8
L0D0_0
10
2.71
20
11.502
0
VERTEX
8
L0D0_0
10
2.71
20
11.499
0
VERTEX
8
L0D0_0
10
2.715
20
11.491
0
VERTEX
8
L0D0_0
10
2.723
20
11.486
0
VERTEX
8
L0D0_0
10
2.726
20
11.486
0
SEQEND
0
POLYLINE
8
L0D0_0
70
0
40
0.028
41
0.028
66
1
0
VERTEX
8
L0D0_0
10
2.726
20
11.518
0
VERTEX
8
L0D0_0
10
2.903
20
11.518
0
SEQEND
0
POLYLINE
8
L0D0_0
70
0
40
0.028
41
0.028
66
1
0
VERTEX
8
L0D0_0
10
2.903
20
11.518
0
VERTEX
8
L0D0_0
10
2.906
20
11.518
0
VERTEX
8
L0D0_0
10
2.917
20
11.523
0
VERTEX
8
L0D0_0
10
2.923
20
11.534
0
VERTEX
8
L0D0_0
10
2.923
20
11.537
0
SEQEND
0
POLYLINE
8
L0D0_0
70
0
40
0.028
41
0.028
66
1
0
VERTEX
8
L0D0_0
10
2.923
20
11.537
0
VERTEX
8
L0D0_0
10
2.923
20
11.618
0
SEQEND
0
POLYLINE
8
L0D0_0
70
0
40
0.028
41
0.028
66
1
0
VERTEX
8
L0D0_0
10
2.923
20
11.618
0
VERTEX
8
L0D0_0
10
2.923
20
11.62
0
VERTEX
8
L0D0_0
10
2.918
20
11.63
0
VERTEX
8
L0D0_0
10
2.908
20
11.637
0
VERTEX
8
L0D0_0
10
2.905
20
11.637
0
SEQEND
0
POLYLINE
8
L0D0_0
70
0
40
0.028
41
0.028
66
1
0
VERTEX
8
L0D0_0
10
2.905
20
11.637
0
VERTEX
8
L0D0_0
10
2.895
20
11.639
0
VERTEX
8
L0D0_0
10
2.864
20
11.641
0
VERTEX
8
L0D0_0
10
2.816
20
11.642
0
VERTEX
8
L0D0_0
10
2.767
20
11.64
0
VERTEX
8
L0D0_0
10
2.736
20
11.637
0
VERTEX
8
L0D0_0
10
2.726
20
11.634
0
SEQEND
0
POLYLINE
8
L0D0_0
70
0
40
0.028
41
0.028
66
1
0
VERTEX
8
L0D0_0
10
2.726
20
11.666
0
VERTEX
8
L0D0_0
10
2.723
20
11.666
0
VERTEX
8
L0D0_0
10
2.715
20
11.661
0
VERTEX
8
L0D0_0
10
2.71
20
11.653
0
VERTEX
8
L0D0_0
10
2.71
20
11.65
0
VERTEX
8
L0D0_0
10
2.71
20
11.647
0
VERTEX
8
L0D0_0
10
2.715
20
11.639
0
VERTEX
8
L0D0_0
10
2.723
20
11.634
0
VERTEX
8
L0D0_0
10
2.726
20
11.634
0
SEQEND
0
POLYLINE
8
L0D0_0
70
0
40
0.028
41
0.028
66
1
0
VERTEX
8
L0D0_0
10
2.726
20
11.666
0
VERTEX
8
L0D0_0
10
2.726
20
11.876
0
SEQEND
0
POLYLINE
8
L0D0_0
70
0
40
0.028
41
0.028
66
1
0
VERTEX
8
L0D0_0
10
2.017
20
11.876
0
VERTEX
8
L0D0_0
10
2.726
20
11.876
0
SEQEND
0
POLYLINE
8
L0D0_0
70
0
40
0.028
41
0.028
66
1
0
VERTEX
8
L0D0_0
10
2.017
20
11.876
0
VERTEX
8
L0D0_0
10
2.01
20
11.876
0
VERTEX
8
L0D0_0
10
1.989
20
11.865
0
VERTEX
8
L0D0_0
10
1.977
20
11.844
0
VERTEX
8
L0D0_0
10
1.977
20
11.837
0
SEQEND
0
POLYLINE
8
L0D0_0
70
0
40
0.028
41
0.028
66
1
0
VERTEX
8
L0D0_0
10
1.977
20
11.751
0
VERTEX
8
L0D0_0
10
1.977
20
11.837
0
SEQEND
0
POLYLINE
8
L0D0_0
70
0
40
0.028
41
0.028
66
1
0
VERTEX
8
L0D0_0
10
1.977
20
11.751
0
VERTEX
8
L0D0_0
10
2.036
20
11.751
0
SEQEND
0
POLYLINE
8
L0D0_0
70
0
40
0.028
41
0.028
66
1
0
VERTEX
8
L0D0_0
10
2.076
20
11.712
0
VERTEX
8
L0D0_0
10
2.076
20
11.719
0
VERTEX
8
L0D0_0
10
2.064
20
11.74
0
VERTEX
8
L0D0_0
10
2.043
20
11.751
0
VERTEX
8
L0D0_0
10
2.036
20
11.751
0
SEQEND
0
POLYLINE
8
L0D0_0
70
0
40
0.028
41
0.028
66
1
0
VERTEX
8
L0D0_0
10
2.076
20
11.565
0
VERTEX
8
L0D0_0
10
2.076
20
11.712
0
SEQEND
0
POLYLINE
8
L0D0_0
70
0
40
0.028
41
0.028
66
1
0
VERTEX
8
L0D0_0
10
2.036
20
11.526
0
VERTEX
8
L0D0_0
10
2.043
20
11.526
0
VERTEX
8
L0D0_0
10
2.064
20
11.537
0
VERTEX
8
L0D0_0
10
2.076
20
11.558
0
VERTEX
8
L0D0_0
10
2.076
20
11.565
0
SEQEND
0
POLYLINE
8
L0D0_0
70
0
40
0.028
41
0.028
66
1
0
VERTEX
8
L0D0_0
10
1.977
20
11.526
0
VERTEX
8
L0D0_0
10
2.036
20
11.526
0
SEQEND
0
POLYLINE
8
L0D0_0
70
0
40
0.028
41
0.028
66
1
0
VERTEX
8
L0D0_0
10
1.977
20
11.451
0
VERTEX
8
L0D0_0
10
1.977
20
11.526
0
SEQEND
0
POLYLINE
8
L0D0_0
70
0
40
0.028
41
0.028
66
1
0
VERTEX
8
L0D0_0
10
1.853
20
11.327
0
VERTEX
8
L0D0_0
10
1.865
20
11.327
0
VERTEX
8
L0D0_0
10
1.901
20
11.336
0
VERTEX
8
L0D0_0
10
1.941
20
11.363
0
VERTEX
8
L0D0_0
10
1.968
20
11.403
0
VERTEX
8
L0D0_0
10
1.977
20
11.439
0
VERTEX
8
L0D0_0
10
1.977
20
11.451
0
SEQEND
0
POLYLINE
8
L0D0_0
70
0
40
0.028
41
0.028
66
1
0
VERTEX
8
L0D0_0
10
1.977
20
10.453
0
VERTEX
8
L0D0_0
10
1.977
20
10.465
0
VERTEX
8
L0D0_0
10
1.968
20
10.502
0
VERTEX
8
L0D0_0
10
1.941
20
10.541
0
VERTEX
8
L0D0_0
10
1.901
20
10.568
0
VERTEX
8
L0D0_0
10
1.865
20
10.578
0
VERTEX
8
L0D0_0
10
1.853
20
10.578
0
SEQEND
0
POLYLINE
8
L0D0_0
70
0
40
0.028
41
0.028
66
1
0
VERTEX
8
L0D0_0
10
1.141
20
10.988
0
VERTEX
8
L0D0_0
10
1.141
20
11.068
0
SEQEND
0
POLYLINE
8
L0D0_0
70
0
40
0.028
41
0.028
66
1
0
VERTEX
8
L0D0_0
10
1.141
20
10.988
0
VERTEX
8
L0D0_0
10
1.141
20
10.984
0
VERTEX
8
L0D0_0
10
1.147
20
10.974
0
VERTEX
8
L0D0_0
10
1.158
20
10.968
0
VERTEX
8
L0D0_0
10
1.161
20
10.968
0
SEQEND
0
POLYLINE
8
L0D0_0
70
0
40
0.028
41
0.028
66
1
0
VERTEX
8
L0D0_0
10
1.338
20
10.968
0
VERTEX
8
L0D0_0
10
1.161
20
10.968
0
SEQEND
0
POLYLINE
8
L0D0_0
70
0
40
0.028
41
0.028
66
1
0
VERTEX
8
L0D0_0
10
1.338
20
10.937
0
VERTEX
8
L0D0_0
10
1.341
20
10.937
0
VERTEX
8
L0D0_0
10
1.349
20
10.941
0
VERTEX
8
L0D0_0
10
1.354
20
10.949
0
VERTEX
8
L0D0_0
10
1.354
20
10.952
0
VERTEX
8
L0D0_0
10
1.354
20
10.955
0
VERTEX
8
L0D0_0
10
1.349
20
10.963
0
VERTEX
8
L0D0_0
10
1.341
20
10.968
0
VERTEX
8
L0D0_0
10
1.338
20
10.968
0
SEQEND
0
POLYLINE
8
L0D0_0
70
0
40
0.028
41
0.028
66
1
0
VERTEX
8
L0D0_0
10
1.338
20
10.937
0
VERTEX
8
L0D0_0
10
1.161
20
10.937
0
SEQEND
0
POLYLINE
8
L0D0_0
70
0
40
0.028
41
0.028
66
1
0
VERTEX
8
L0D0_0
10
1.161
20
10.937
0
VERTEX
8
L0D0_0
10
1.158
20
10.937
0
VERTEX
8
L0D0_0
10
1.147
20
10.931
0
VERTEX
8
L0D0_0
10
1.141
20
10.92
0
VERTEX
8
L0D0_0
10
1.141
20
10.917
0
SEQEND
0
POLYLINE
8
L0D0_0
70
0
40
0.028
41
0.028
66
1
0
VERTEX
8
L0D0_0
10
1.141
20
10.917
0
VERTEX
8
L0D0_0
10
1.141
20
10.837
0
SEQEND
0
POLYLINE
8
L0D0_0
70
0
40
0.028
41
0.028
66
1
0
VERTEX
8
L0D0_0
10
1.141
20
10.837
0
VERTEX
8
L0D0_0
10
1.141
20
10.834
0
VERTEX
8
L0D0_0
10
1.146
20
10.824
0
VERTEX
8
L0D0_0
10
1.156
20
10.817
0
VERTEX
8
L0D0_0
10
1.158
20
10.817
0
SEQEND
0
POLYLINE
8
L0D0_0
70
0
40
0.028
41
0.028
66
1
0
VERTEX
8
L0D0_0
10
1.158
20
10.817
0
VERTEX
8
L0D0_0
10
1.169
20
10.815
0
VERTEX
8
L0D0_0
10
1.2
20
10.813
0
VERTEX
8
L0D0_0
10
1.248
20
10.812
0
VERTEX
8
L0D0_0
10
1.297
20
10.814
0
VERTEX
8
L0D0_0
10
1.328
20
10.818
0
VERTEX
8
L0D0_0
10
1.338
20
10.82
0
SEQEND
0
POLYLINE
8
L0D0_0
70
0
40
0.028
41
0.028
66
1
0
VERTEX
8
L0D0_0
10
1.338
20
10.788
0
VERTEX
8
L0D0_0
10
1.341
20
10.788
0
VERTEX
8
L0D0_0
10
1.349
20
10.793
0
VERTEX
8
L0D0_0
10
1.354
20
10.801
0
VERTEX
8
L0D0_0
10
1.354
20
10.804
0
VERTEX
8
L0D0_0
10
1.354
20
10.807
0
VERTEX
8
L0D0_0
10
1.349
20
10.815
0
VERTEX
8
L0D0_0
10
1.341
20
10.82
0
VERTEX
8
L0D0_0
10
1.338
20
10.82
0
SEQEND
0
POLYLINE
8
L0D0_0
70
0
40
0.028
41
0.028
66
1
0
VERTEX
8
L0D0_0
10
1.338
20
10.788
0
VERTEX
8
L0D0_0
10
1.338
20
10.578
0
SEQEND
0
POLYLINE
8
L0D0_0
70
0
40
0.028
41
0.028
66
1
0
VERTEX
8
L0D0_0
10
0.811
20
11.68
0
VERTEX
8
L0D0_0
10
0.813
20
11.69
0
VERTEX
8
L0D0_0
10
0.817
20
11.721
0
VERTEX
8
L0D0_0
10
0.819
20
11.769
0
VERTEX
8
L0D0_0
10
0.818
20
11.818
0
VERTEX
8
L0D0_0
10
0.815
20
11.849
0
VERTEX
8
L0D0_0
10
0.814
20
11.859
0
SEQEND
0
POLYLINE
8
L0D0_0
70
0
40
0.028
41
0.028
66
1
0
VERTEX
8
L0D0_0
10
0.814
20
11.859
0
VERTEX
8
L0D0_0
10
0.813
20
11.862
0
VERTEX
8
L0D0_0
10
0.807
20
11.871
0
VERTEX
8
L0D0_0
10
0.796
20
11.876
0
VERTEX
8
L0D0_0
10
0.794
20
11.876
0
SEQEND
0
POLYLINE
8
L0D0_0
70
0
40
0.028
41
0.028
66
1
0
VERTEX
8
L0D0_0
10
0.714
20
11.876
0
VERTEX
8
L0D0_0
10
0.794
20
11.876
0
SEQEND
0
POLYLINE
8
L0D0_0
70
0
40
0.028
41
0.028
66
1
0
VERTEX
8
L0D0_0
10
0.714
20
11.876
0
VERTEX
8
L0D0_0
10
0.71
20
11.876
0
VERTEX
8
L0D0_0
10
0.7
20
11.87
0
VERTEX
8
L0D0_0
10
0.694
20
11.86
0
VERTEX
8
L0D0_0
10
0.694
20
11.857
0
SEQEND
0
POLYLINE
8
L0D0_0
70
0
40
0.028
41
0.028
66
1
0
VERTEX
8
L0D0_0
10
0.694
20
11.68
0
VERTEX
8
L0D0_0
10
0.694
20
11.857
0
SEQEND
0
POLYLINE
8
L0D0_0
70
0
40
0.028
41
0.028
66
1
0
VERTEX
8
L0D0_0
10
0.663
20
11.68
0
VERTEX
8
L0D0_0
10
0.663
20
11.677
0
VERTEX
8
L0D0_0
10
0.667
20
11.669
0
VERTEX
8
L0D0_0
10
0.676
20
11.664
0
VERTEX
8
L0D0_0
10
0.678
20
11.664
0
VERTEX
8
L0D0_0
10
0.681
20
11.664
0
VERTEX
8
L0D0_0
10
0.69
20
11.669
0
VERTEX
8
L0D0_0
10
0.694
20
11.677
0
VERTEX
8
L0D0_0
10
0.694
20
11.68
0
SEQEND
0
POLYLINE
8
L0D0_0
70
0
40
0.028
41
0.028
66
1
0
VERTEX
8
L0D0_0
10
0.663
20
11.68
0
VERTEX
8
L0D0_0
10
0.663
20
11.857
0
SEQEND
0
POLYLINE
8
L0D0_0
70
0
40
0.028
41
0.028
66
1
0
VERTEX
8
L0D0_0
10
0.663
20
11.857
0
VERTEX
8
L0D0_0
10
0.663
20
11.86
0
VERTEX
8
L0D0_0
10
0.657
20
11.87
0
VERTEX
8
L0D0_0
10
0.647
20
11.876
0
VERTEX
8
L0D0_0
10
0.643
20
11.876
0
SEQEND
0
POLYLINE
8
L0D0_0
70
0
40
0.028
41
0.028
66
1
0
VERTEX
8
L0D0_0
10
0.643
20
11.876
0
VERTEX
8
L0D0_0
10
0.563
20
11.876
0
SEQEND
0
POLYLINE
8
L0D0_0
70
0
40
0.028
41
0.028
66
1
0
VERTEX
8
L0D0_0
10
0.563
20
11.876
0
VERTEX
8
L0D0_0
10
0.56
20
11.876
0
VERTEX
8
L0D0_0
10
0.55
20
11.871
0
VERTEX
8
L0D0_0
10
0.544
20
11.862
0
VERTEX
8
L0D0_0
10
0.543
20
11.859
0
SEQEND
0
POLYLINE
8
L0D0_0
70
0
40
0.028
41
0.028
66
1
0
VERTEX
8
L0D0_0
10
0.543
20
11.859
0
VERTEX
8
L0D0_0
10
0.542
20
11.849
0
VERTEX
8
L0D0_0
10
0.539
20
11.818
0
VERTEX
8
L0D0_0
10
0.538
20
11.769
0
VERTEX
8
L0D0_0
10
0.54
20
11.721
0
VERTEX
8
L0D0_0
10
0.544
20
11.69
0
VERTEX
8
L0D0_0
10
0.546
20
11.68
0
SEQEND
0
POLYLINE
8
L0D0_0
70
0
40
0.028
41
0.028
66
1
0
VERTEX
8
L0D0_0
10
0.514
20
11.68
0
VERTEX
8
L0D0_0
10
0.514
20
11.677
0
VERTEX
8
L0D0_0
10
0.519
20
11.669
0
VERTEX
8
L0D0_0
10
0.527
20
11.664
0
VERTEX
8
L0D0_0
10
0.53
20
11.664
0
VERTEX
8
L0D0_0
10
0.533
20
11.664
0
VERTEX
8
L0D0_0
10
0.541
20
11.669
0
VERTEX
8
L0D0_0
10
0.546
20
11.677
0
VERTEX
8
L0D0_0
10
0.546
20
11.68
0
SEQEND
0
POLYLINE
8
L0D0_0
70
0
40
0.028
41
0.028
66
1
0
VERTEX
8
L0D0_0
10
0.514
20
11.68
0
VERTEX
8
L0D0_0
10
0.304
20
11.68
0
SEQEND
0
POLYLINE
8
L0D0_0
70
0
40
0.028
41
0.028
66
1
0
VERTEX
8
L0D0_0
10
0.304
20
11.68
0
VERTEX
8
L0D0_0
10
0.304
20
11.469
0
SEQEND
0
POLYLINE
8
L0D0_0
70
0
40
0.028
41
0.028
66
1
0
VERTEX
8
L0D0_0
10
0.304
20
11.438
0
VERTEX
8
L0D0_0
10
0.307
20
11.438
0
VERTEX
8
L0D0_0
10
0.315
20
11.443
0
VERTEX
8
L0D0_0
10
0.32
20
11.451
0
VERTEX
8
L0D0_0
10
0.32
20
11.454
0
VERTEX
8
L0D0_0
10
0.32
20
11.457
0
VERTEX
8
L0D0_0
10
0.315
20
11.465
0
VERTEX
8
L0D0_0
10
0.307
20
11.469
0
VERTEX
8
L0D0_0
10
0.304
20
11.469
0
SEQEND
0
POLYLINE
8
L0D0_0
70
0
40
0.028
41
0.028
66
1
0
VERTEX
8
L0D0_0
10
0.304
20
11.438
0
VERTEX
8
L0D0_0
10
0.294
20
11.44
0
VERTEX
8
L0D0_0
10
0.263
20
11.444
0
VERTEX
8
L0D0_0
10
0.214
20
11.446
0
VERTEX
8
L0D0_0
10
0.166
20
11.445
0
VERTEX
8
L0D0_0
10
0.135
20
11.442
0
VERTEX
8
L0D0_0
10
0.125
20
11.441
0
SEQEND
0
POLYLINE
8
L0D0_0
70
0
40
0.028
41
0.028
66
1
0
VERTEX
8
L0D0_0
10
0.125
20
11.44
0
VERTEX
8
L0D0_0
10
0.122
20
11.44
0
VERTEX
8
L0D0_0
10
0.112
20
11.434
0
VERTEX
8
L0D0_0
10
0.108
20
11.423
0
VERTEX
8
L0D0_0
10
0.108
20
11.421
0
SEQEND
0
POLYLINE
8
L0D0_0
70
0
40
0.028
41
0.028
66
1
0
VERTEX
8
L0D0_0
10
0.108
20
11.341
0
VERTEX
8
L0D0_0
10
0.108
20
11.421
0
SEQEND
0
POLYLINE
8
L0D0_0
70
0
40
0.028
41
0.028
66
1
0
VERTEX
8
L0D0_0
10
0.108
20
11.341
0
VERTEX
8
L0D0_0
10
0.108
20
11.337
0
VERTEX
8
L0D0_0
10
0.113
20
11.327
0
VERTEX
8
L0D0_0
10
0.124
20
11.321
0
VERTEX
8
L0D0_0
10
0.127
20
11.321
0
SEQEND
0
POLYLINE
8
L0D0_0
70
0
40
0.028
41
0.028
66
1
0
VERTEX
8
L0D0_0
10
0.304
20
11.321
0
VERTEX
8
L0D0_0
10
0.127
20
11.321
0
SEQEND
0
POLYLINE
8
L0D0_0
70
0
40
0.028
41
0.028
66
1
0
VERTEX
8
L0D0_0
10
0.304
20
11.29
0
VERTEX
8
L0D0_0
10
0.307
20
11.29
0
VERTEX
8
L0D0_0
10
0.315
20
11.294
0
VERTEX
8
L0D0_0
10
0.32
20
11.303
0
VERTEX
8
L0D0_0
10
0.32
20
11.305
0
VERTEX
8
L0D0_0
10
0.32
20
11.308
0
VERTEX
8
L0D0_0
10
0.315
20
11.317
0
VERTEX
8
L0D0_0
10
0.307
20
11.321
0
VERTEX
8
L0D0_0
10
0.304
20
11.321
0
SEQEND
0
POLYLINE
8
L0D0_0
70
0
40
0.028
41
0.028
66
1
0
VERTEX
8
L0D0_0
10
0.304
20
11.29
0
VERTEX
8
L0D0_0
10
0.127
20
11.29
0
SEQEND
0
POLYLINE
8
L0D0_0
70
0
40
0.028
41
0.028
66
1
0
VERTEX
8
L0D0_0
10
0.127
20
11.29
0
VERTEX
8
L0D0_0
10
0.124
20
11.29
0
VERTEX
8
L0D0_0
10
0.113
20
11.284
0
VERTEX
8
L0D0_0
10
0.108
20
11.273
0
VERTEX
8
L0D0_0
10
0.108
20
11.27
0
SEQEND
0
POLYLINE
8
L0D0_0
70
0
40
0.028
41
0.028
66
1
0
VERTEX
8
L0D0_0
10
0.108
20
11.27
0
VERTEX
8
L0D0_0
10
0.108
20
11.19
0
SEQEND
0
POLYLINE
8
L0D0_0
70
0
40
0.028
41
0.028
66
1
0
VERTEX
8
L0D0_0
10
0.108
20
11.19
0
VERTEX
8
L0D0_0
10
0.108
20
11.187
0
VERTEX
8
L0D0_0
10
0.112
20
11.177
0
VERTEX
8
L0D0_0
10
0.122
20
11.171
0
VERTEX
8
L0D0_0
10
0.125
20
11.17
0
SEQEND
0
POLYLINE
8
L0D0_0
70
0
40
0.028
41
0.028
66
1
0
VERTEX
8
L0D0_0
10
0.125
20
11.17
0
VERTEX
8
L0D0_0
10
0.135
20
11.169
0
VERTEX
8
L0D0_0
10
0.166
20
11.166
0
VERTEX
8
L0D0_0
10
0.214
20
11.165
0
VERTEX
8
L0D0_0
10
0.263
20
11.167
0
VERTEX
8
L0D0_0
10
0.294
20
11.171
0
VERTEX
8
L0D0_0
10
0.304
20
11.173
0
SEQEND
0
POLYLINE
8
L0D0_0
70
0
40
0.028
41
0.028
66
1
0
VERTEX
8
L0D0_0
10
0.304
20
11.141
0
VERTEX
8
L0D0_0
10
0.307
20
11.141
0
VERTEX
8
L0D0_0
10
0.315
20
11.146
0
VERTEX
8
L0D0_0
10
0.32
20
11.154
0
VERTEX
8
L0D0_0
10
0.32
20
11.157
0
VERTEX
8
L0D0_0
10
0.32
20
11.16
0
VERTEX
8
L0D0_0
10
0.315
20
11.168
0
VERTEX
8
L0D0_0
10
0.307
20
11.173
0
VERTEX
8
L0D0_0
10
0.304
20
11.173
0
SEQEND
0
POLYLINE
8
L0D0_0
70
0
40
0.028
41
0.028
66
1
0
VERTEX
8
L0D0_0
10
1.053
20
11.68
0
VERTEX
8
L0D0_0
10
0.843
20
11.68
0
SEQEND
0
POLYLINE
8
L0D0_0
70
0
40
0.028
41
0.028
66
1
0
VERTEX
8
L0D0_0
10
0.811
20
11.68
0
VERTEX
8
L0D0_0
10
0.811
20
11.677
0
VERTEX
8
L0D0_0
10
0.816
20
11.669
0
VERTEX
8
L0D0_0
10
0.824
20
11.664
0
VERTEX
8
L0D0_0
10
0.827
20
11.664
0
VERTEX
8
L0D0_0
10
0.83
20
11.664
0
VERTEX
8
L0D0_0
10
0.838
20
11.669
0
VERTEX
8
L0D0_0
10
0.843
20
11.677
0
VERTEX
8
L0D0_0
10
0.843
20
11.68
0
SEQEND
0
POLYLINE
8
L0D0_0
70
0
40
0.028
41
0.028
66
1
0
VERTEX
8
L0D0_0
10
1.338
20
11.327
0
VERTEX
8
L0D0_0
10
1.338
20
11.116
0
SEQEND
0
POLYLINE
8
L0D0_0
70
0
40
0.028
41
0.028
66
1
0
VERTEX
8
L0D0_0
10
1.338
20
11.085
0
VERTEX
8
L0D0_0
10
1.341
20
11.085
0
VERTEX
8
L0D0_0
10
1.349
20
11.089
0
VERTEX
8
L0D0_0
10
1.354
20
11.098
0
VERTEX
8
L0D0_0
10
1.354
20
11.101
0
VERTEX
8
L0D0_0
10
1.354
20
11.103
0
VERTEX
8
L0D0_0
10
1.349
20
11.112
0
VERTEX
8
L0D0_0
10
1.341
20
11.116
0
VERTEX
8
L0D0_0
10
1.338
20
11.116
0
SEQEND
0
POLYLINE
8
L0D0_0
70
0
40
0.028
41
0.028
66
1
0
VERTEX
8
L0D0_0
10
1.338
20
11.085
0
VERTEX
8
L0D0_0
10
1.328
20
11.087
0
VERTEX
8
L0D0_0
10
1.297
20
11.09
0
VERTEX
8
L0D0_0
10
1.248
20
11.093
0
VERTEX
8
L0D0_0
10
1.2
20
11.092
0
VERTEX
8
L0D0_0
10
1.169
20
11.089
0
VERTEX
8
L0D0_0
10
1.158
20
11.087
0
SEQEND
0
POLYLINE
8
L0D0_0
70
0
40
0.028
41
0.028
66
1
0
VERTEX
8
L0D0_0
10
1.158
20
11.087
0
VERTEX
8
L0D0_0
10
1.156
20
11.087
0
VERTEX
8
L0D0_0
10
1.146
20
11.081
0
VERTEX
8
L0D0_0
10
1.141
20
11.07
0
VERTEX
8
L0D0_0
10
1.141
20
11.068
0
SEQEND
0
POLYLINE
8
L0D0_0
70
0
40
0.028
41
0.028
66
1
0
VERTEX
8
L0D0_0
10
0.954
20
9.233
0
VERTEX
8
L0D0_0
10
0.954
20
9.085
0
SEQEND
0
POLYLINE
8
L0D0_0
70
0
40
0.028
41
0.028
66
1
0
VERTEX
8
L0D0_0
10
0.994
20
9.272
0
VERTEX
8
L0D0_0
10
0.987
20
9.272
0
VERTEX
8
L0D0_0
10
0.966
20
9.26
0
VERTEX
8
L0D0_0
10
0.954
20
9.24
0
VERTEX
8
L0D0_0
10
0.954
20
9.233
0
SEQEND
0
POLYLINE
8
L0D0_0
70
0
40
0.028
41
0.028
66
1
0
VERTEX
8
L0D0_0
10
1.053
20
9.272
0
VERTEX
8
L0D0_0
10
0.994
20
9.272
0
SEQEND
0
POLYLINE
8
L0D0_0
70
0
40
0.028
41
0.028
66
1
0
VERTEX
8
L0D0_0
10
1.053
20
9.346
0
VERTEX
8
L0D0_0
10
1.053
20
9.272
0
SEQEND
0
POLYLINE
8
L0D0_0
70
0
40
0.028
41
0.028
66
1
0
VERTEX
8
L0D0_0
10
1.178
20
9.471
0
VERTEX
8
L0D0_0
10
1.165
20
9.471
0
VERTEX
8
L0D0_0
10
1.129
20
9.461
0
VERTEX
8
L0D0_0
10
1.089
20
9.434
0
VERTEX
8
L0D0_0
10
1.063
20
9.395
0
VERTEX
8
L0D0_0
10
1.053
20
9.358
0
VERTEX
8
L0D0_0
10
1.053
20
9.346
0
SEQEND
0
POLYLINE
8
L0D0_0
70
0
40
0.028
41
0.028
66
1
0
VERTEX
8
L0D0_0
10
1.053
20
10.344
0
VERTEX
8
L0D0_0
10
1.053
20
10.332
0
VERTEX
8
L0D0_0
10
1.063
20
10.296
0
VERTEX
8
L0D0_0
10
1.089
20
10.256
0
VERTEX
8
L0D0_0
10
1.129
20
10.229
0
VERTEX
8
L0D0_0
10
1.165
20
10.22
0
VERTEX
8
L0D0_0
10
1.178
20
10.22
0
SEQEND
0
POLYLINE
8
L0D0_0
70
0
40
0.028
41
0.028
66
1
0
VERTEX
8
L0D0_0
10
0.304
20
9.428
0
VERTEX
8
L0D0_0
10
0.307
20
9.428
0
VERTEX
8
L0D0_0
10
0.315
20
9.433
0
VERTEX
8
L0D0_0
10
0.32
20
9.441
0
VERTEX
8
L0D0_0
10
0.32
20
9.444
0
VERTEX
8
L0D0_0
10
0.32
20
9.447
0
VERTEX
8
L0D0_0
10
0.315
20
9.455
0
VERTEX
8
L0D0_0
10
0.307
20
9.46
0
VERTEX
8
L0D0_0
10
0.304
20
9.46
0
SEQEND
0
POLYLINE
8
L0D0_0
70
0
40
0.028
41
0.028
66
1
0
VERTEX
8
L0D0_0
10
0.304
20
9.428
0
VERTEX
8
L0D0_0
10
0.294
20
9.43
0
VERTEX
8
L0D0_0
10
0.263
20
9.434
0
VERTEX
8
L0D0_0
10
0.214
20
9.436
0
VERTEX
8
L0D0_0
10
0.166
20
9.435
0
VERTEX
8
L0D0_0
10
0.135
20
9.433
0
VERTEX
8
L0D0_0
10
0.125
20
9.431
0
SEQEND
0
POLYLINE
8
L0D0_0
70
0
40
0.028
41
0.028
66
1
0
VERTEX
8
L0D0_0
10
0.125
20
9.431
0
VERTEX
8
L0D0_0
10
0.122
20
9.431
0
VERTEX
8
L0D0_0
10
0.112
20
9.424
0
VERTEX
8
L0D0_0
10
0.108
20
9.414
0
VERTEX
8
L0D0_0
10
0.108
20
9.411
0
SEQEND
0
POLYLINE
8
L0D0_0
70
0
40
0.028
41
0.028
66
1
0
VERTEX
8
L0D0_0
10
0.108
20
9.331
0
VERTEX
8
L0D0_0
10
0.108
20
9.411
0
SEQEND
0
POLYLINE
8
L0D0_0
70
0
40
0.028
41
0.028
66
1
0
VERTEX
8
L0D0_0
10
0.108
20
9.331
0
VERTEX
8
L0D0_0
10
0.108
20
9.328
0
VERTEX
8
L0D0_0
10
0.113
20
9.317
0
VERTEX
8
L0D0_0
10
0.124
20
9.311
0
VERTEX
8
L0D0_0
10
0.127
20
9.311
0
SEQEND
0
POLYLINE
8
L0D0_0
70
0
40
0.028
41
0.028
66
1
0
VERTEX
8
L0D0_0
10
0.304
20
9.311
0
VERTEX
8
L0D0_0
10
0.127
20
9.311
0
SEQEND
0
POLYLINE
8
L0D0_0
70
0
40
0.028
41
0.028
66
1
0
VERTEX
8
L0D0_0
10
0.304
20
9.28
0
VERTEX
8
L0D0_0
10
0.307
20
9.28
0
VERTEX
8
L0D0_0
10
0.315
20
9.285
0
VERTEX
8
L0D0_0
10
0.32
20
9.293
0
VERTEX
8
L0D0_0
10
0.32
20
9.296
0
VERTEX
8
L0D0_0
10
0.32
20
9.299
0
VERTEX
8
L0D0_0
10
0.315
20
9.307
0
VERTEX
8
L0D0_0
10
0.307
20
9.311
0
VERTEX
8
L0D0_0
10
0.304
20
9.311
0
SEQEND
0
POLYLINE
8
L0D0_0
70
0
40
0.028
41
0.028
66
1
0
VERTEX
8
L0D0_0
10
0.304
20
9.28
0
VERTEX
8
L0D0_0
10
0.127
20
9.28
0
SEQEND
0
POLYLINE
8
L0D0_0
70
0
40
0.028
41
0.028
66
1
0
VERTEX
8
L0D0_0
10
0.127
20
9.28
0
VERTEX
8
L0D0_0
10
0.124
20
9.28
0
VERTEX
8
L0D0_0
10
0.113
20
9.274
0
VERTEX
8
L0D0_0
10
0.108
20
9.264
0
VERTEX
8
L0D0_0
10
0.108
20
9.26
0
SEQEND
0
POLYLINE
8
L0D0_0
70
0
40
0.028
41
0.028
66
1
0
VERTEX
8
L0D0_0
10
0.108
20
9.26
0
VERTEX
8
L0D0_0
10
0.108
20
9.18
0
SEQEND
0
POLYLINE
8
L0D0_0
70
0
40
0.028
41
0.028
66
1
0
VERTEX
8
L0D0_0
10
0.108
20
9.18
0
VERTEX
8
L0D0_0
10
0.108
20
9.178
0
VERTEX
8
L0D0_0
10
0.112
20
9.167
0
VERTEX
8
L0D0_0
10
0.122
20
9.161
0
VERTEX
8
L0D0_0
10
0.125
20
9.161
0
SEQEND
0
POLYLINE
8
L0D0_0
70
0
40
0.028
41
0.028
66
1
0
VERTEX
8
L0D0_0
10
0.125
20
9.161
0
VERTEX
8
L0D0_0
10
0.135
20
9.159
0
VERTEX
8
L0D0_0
10
0.166
20
9.156
0
VERTEX
8
L0D0_0
10
0.214
20
9.155
0
VERTEX
8
L0D0_0
10
0.263
20
9.158
0
VERTEX
8
L0D0_0
10
0.294
20
9.161
0
VERTEX
8
L0D0_0
10
0.304
20
9.163
0
SEQEND
0
POLYLINE
8
L0D0_0
70
0
40
0.028
41
0.028
66
1
0
VERTEX
8
L0D0_0
10
0.304
20
9.132
0
VERTEX
8
L0D0_0
10
0.307
20
9.132
0
VERTEX
8
L0D0_0
10
0.315
20
9.136
0
VERTEX
8
L0D0_0
10
0.32
20
9.145
0
VERTEX
8
L0D0_0
10
0.32
20
9.147
0
VERTEX
8
L0D0_0
10
0.32
20
9.15
0
VERTEX
8
L0D0_0
10
0.315
20
9.158
0
VERTEX
8
L0D0_0
10
0.307
20
9.163
0
VERTEX
8
L0D0_0
10
0.304
20
9.163
0
SEQEND
0
POLYLINE
8
L0D0_0
70
0
40
0.028
41
0.028
66
1
0
VERTEX
8
L0D0_0
10
0.304
20
9.132
0
VERTEX
8
L0D0_0
10
0.304
20
8.921
0
SEQEND
0
POLYLINE
8
L0D0_0
70
0
40
0.028
41
0.028
66
1
0
VERTEX
8
L0D0_0
10
1.013
20
8.921
0
VERTEX
8
L0D0_0
10
0.304
20
8.921
0
SEQEND
0
POLYLINE
8
L0D0_0
70
0
40
0.028
41
0.028
66
1
0
VERTEX
8
L0D0_0
10
1.013
20
8.921
0
VERTEX
8
L0D0_0
10
1.02
20
8.921
0
VERTEX
8
L0D0_0
10
1.041
20
8.933
0
VERTEX
8
L0D0_0
10
1.053
20
8.954
0
VERTEX
8
L0D0_0
10
1.053
20
8.961
0
SEQEND
0
POLYLINE
8
L0D0_0
70
0
40
0.028
41
0.028
66
1
0
VERTEX
8
L0D0_0
10
1.053
20
9.046
0
VERTEX
8
L0D0_0
10
1.053
20
8.961
0
SEQEND
0
POLYLINE
8
L0D0_0
70
0
40
0.028
41
0.028
66
1
0
VERTEX
8
L0D0_0
10
1.053
20
9.046
0
VERTEX
8
L0D0_0
10
0.994
20
9.046
0
SEQEND
0
POLYLINE
8
L0D0_0
70
0
40
0.028
41
0.028
66
1
0
VERTEX
8
L0D0_0
10
0.954
20
9.085
0
VERTEX
8
L0D0_0
10
0.954
20
9.078
0
VERTEX
8
L0D0_0
10
0.966
20
9.058
0
VERTEX
8
L0D0_0
10
0.987
20
9.046
0
VERTEX
8
L0D0_0
10
0.994
20
9.046
0
SEQEND
0
POLYLINE
8
L0D0_0
70
0
40
0.028
41
0.028
66
1
0
VERTEX
8
L0D0_0
10
2.367
20
8.941
0
VERTEX
8
L0D0_0
10
2.367
20
8.938
0
VERTEX
8
L0D0_0
10
2.373
20
8.927
0
VERTEX
8
L0D0_0
10
2.384
20
8.921
0
VERTEX
8
L0D0_0
10
2.387
20
8.921
0
SEQEND
0
POLYLINE
8
L0D0_0
70
0
40
0.028
41
0.028
66
1
0
VERTEX
8
L0D0_0
10
2.387
20
8.921
0
VERTEX
8
L0D0_0
10
2.467
20
8.921
0
SEQEND
0
POLYLINE
8
L0D0_0
70
0
40
0.028
41
0.028
66
1
0
VERTEX
8
L0D0_0
10
2.467
20
8.921
0
VERTEX
8
L0D0_0
10
2.47
20
8.921
0
VERTEX
8
L0D0_0
10
2.48
20
8.926
0
VERTEX
8
L0D0_0
10
2.487
20
8.936
0
VERTEX
8
L0D0_0
10
2.487
20
8.938
0
SEQEND
0
POLYLINE
8
L0D0_0
70
0
40
0.028
41
0.028
66
1
0
VERTEX
8
L0D0_0
10
2.487
20
8.938
0
VERTEX
8
L0D0_0
10
2.489
20
8.949
0
VERTEX
8
L0D0_0
10
2.491
20
8.98
0
VERTEX
8
L0D0_0
10
2.492
20
9.028
0
VERTEX
8
L0D0_0
10
2.49
20
9.077
0
VERTEX
8
L0D0_0
10
2.486
20
9.108
0
VERTEX
8
L0D0_0
10
2.484
20
9.118
0
SEQEND
0
POLYLINE
8
L0D0_0
70
0
40
0.028
41
0.028
66
1
0
VERTEX
8
L0D0_0
10
2.516
20
9.118
0
VERTEX
8
L0D0_0
10
2.516
20
9.121
0
VERTEX
8
L0D0_0
10
2.511
20
9.129
0
VERTEX
8
L0D0_0
10
2.503
20
9.134
0
VERTEX
8
L0D0_0
10
2.5
20
9.134
0
VERTEX
8
L0D0_0
10
2.497
20
9.134
0
VERTEX
8
L0D0_0
10
2.489
20
9.129
0
VERTEX
8
L0D0_0
10
2.484
20
9.121
0
VERTEX
8
L0D0_0
10
2.484
20
9.118
0
SEQEND
0
POLYLINE
8
L0D0_0
70
0
40
0.028
41
0.028
66
1
0
VERTEX
8
L0D0_0
10
2.516
20
9.118
0
VERTEX
8
L0D0_0
10
2.726
20
9.118
0
SEQEND
0
POLYLINE
8
L0D0_0
70
0
40
0.028
41
0.028
66
1
0
VERTEX
8
L0D0_0
10
1.692
20
9.471
0
VERTEX
8
L0D0_0
10
1.692
20
9.681
0
SEQEND
0
POLYLINE
8
L0D0_0
70
0
40
0.028
41
0.028
66
1
0
VERTEX
8
L0D0_0
10
1.692
20
9.713
0
VERTEX
8
L0D0_0
10
1.689
20
9.713
0
VERTEX
8
L0D0_0
10
1.681
20
9.708
0
VERTEX
8
L0D0_0
10
1.676
20
9.7
0
VERTEX
8
L0D0_0
10
1.676
20
9.697
0
VERTEX
8
L0D0_0
10
1.676
20
9.694
0
VERTEX
8
L0D0_0
10
1.681
20
9.686
0
VERTEX
8
L0D0_0
10
1.689
20
9.681
0
VERTEX
8
L0D0_0
10
1.692
20
9.681
0
SEQEND
0
POLYLINE
8
L0D0_0
70
0
40
0.028
41
0.028
66
1
0
VERTEX
8
L0D0_0
10
1.692
20
9.713
0
VERTEX
8
L0D0_0
10
1.702
20
9.711
0
VERTEX
8
L0D0_0
10
1.733
20
9.707
0
VERTEX
8
L0D0_0
10
1.782
20
9.705
0
VERTEX
8
L0D0_0
10
1.83
20
9.706
0
VERTEX
8
L0D0_0
10
1.861
20
9.708
0
VERTEX
8
L0D0_0
10
1.872
20
9.71
0
SEQEND
0
POLYLINE
8
L0D0_0
70
0
40
0.028
41
0.028
66
1
0
VERTEX
8
L0D0_0
10
1.977
20
9.118
0
VERTEX
8
L0D0_0
10
2.188
20
9.118
0
SEQEND
0
POLYLINE
8
L0D0_0
70
0
40
0.028
41
0.028
66
1
0
VERTEX
8
L0D0_0
10
2.219
20
9.118
0
VERTEX
8
L0D0_0
10
2.219
20
9.121
0
VERTEX
8
L0D0_0
10
2.215
20
9.129
0
VERTEX
8
L0D0_0
10
2.206
20
9.134
0
VERTEX
8
L0D0_0
10
2.203
20
9.134
0
VERTEX
8
L0D0_0
10
2.201
20
9.134
0
VERTEX
8
L0D0_0
10
2.192
20
9.129
0
VERTEX
8
L0D0_0
10
2.188
20
9.121
0
VERTEX
8
L0D0_0
10
2.188
20
9.118
0
SEQEND
0
POLYLINE
8
L0D0_0
70
0
40
0.028
41
0.028
66
1
0
VERTEX
8
L0D0_0
10
2.219
20
9.118
0
VERTEX
8
L0D0_0
10
2.217
20
9.108
0
VERTEX
8
L0D0_0
10
2.214
20
9.077
0
VERTEX
8
L0D0_0
10
2.211
20
9.028
0
VERTEX
8
L0D0_0
10
2.212
20
8.98
0
VERTEX
8
L0D0_0
10
2.215
20
8.949
0
VERTEX
8
L0D0_0
10
2.217
20
8.938
0
SEQEND
0
POLYLINE
8
L0D0_0
70
0
40
0.028
41
0.028
66
1
0
VERTEX
8
L0D0_0
10
2.217
20
8.938
0
VERTEX
8
L0D0_0
10
2.217
20
8.936
0
VERTEX
8
L0D0_0
10
2.223
20
8.926
0
VERTEX
8
L0D0_0
10
2.234
20
8.921
0
VERTEX
8
L0D0_0
10
2.236
20
8.921
0
SEQEND
0
POLYLINE
8
L0D0_0
70
0
40
0.028
41
0.028
66
1
0
VERTEX
8
L0D0_0
10
2.316
20
8.921
0
VERTEX
8
L0D0_0
10
2.236
20
8.921
0
SEQEND
0
POLYLINE
8
L0D0_0
70
0
40
0.028
41
0.028
66
1
0
VERTEX
8
L0D0_0
10
2.316
20
8.921
0
VERTEX
8
L0D0_0
10
2.32
20
8.921
0
VERTEX
8
L0D0_0
10
2.33
20
8.927
0
VERTEX
8
L0D0_0
10
2.336
20
8.938
0
VERTEX
8
L0D0_0
10
2.336
20
8.941
0
SEQEND
0
POLYLINE
8
L0D0_0
70
0
40
0.028
41
0.028
66
1
0
VERTEX
8
L0D0_0
10
2.336
20
9.118
0
VERTEX
8
L0D0_0
10
2.336
20
8.941
0
SEQEND
0
POLYLINE
8
L0D0_0
70
0
40
0.028
41
0.028
66
1
0
VERTEX
8
L0D0_0
10
2.367
20
9.118
0
VERTEX
8
L0D0_0
10
2.367
20
9.121
0
VERTEX
8
L0D0_0
10
2.363
20
9.129
0
VERTEX
8
L0D0_0
10
2.354
20
9.134
0
VERTEX
8
L0D0_0
10
2.352
20
9.134
0
VERTEX
8
L0D0_0
10
2.349
20
9.134
0
VERTEX
8
L0D0_0
10
2.341
20
9.129
0
VERTEX
8
L0D0_0
10
2.336
20
9.121
0
VERTEX
8
L0D0_0
10
2.336
20
9.118
0
SEQEND
0
POLYLINE
8
L0D0_0
70
0
40
0.028
41
0.028
66
1
0
VERTEX
8
L0D0_0
10
2.367
20
9.118
0
VERTEX
8
L0D0_0
10
2.367
20
8.941
0
SEQEND
0
POLYLINE
8
L0D0_0
70
0
40
0.028
41
0.028
66
1
0
VERTEX
8
L0D0_0
10
2.726
20
9.118
0
VERTEX
8
L0D0_0
10
2.726
20
9.328
0
SEQEND
0
POLYLINE
8
L0D0_0
70
0
40
0.028
41
0.028
66
1
0
VERTEX
8
L0D0_0
10
2.726
20
9.36
0
VERTEX
8
L0D0_0
10
2.723
20
9.36
0
VERTEX
8
L0D0_0
10
2.715
20
9.355
0
VERTEX
8
L0D0_0
10
2.71
20
9.347
0
VERTEX
8
L0D0_0
10
2.71
20
9.344
0
VERTEX
8
L0D0_0
10
2.71
20
9.341
0
VERTEX
8
L0D0_0
10
2.715
20
9.333
0
VERTEX
8
L0D0_0
10
2.723
20
9.328
0
VERTEX
8
L0D0_0
10
2.726
20
9.328
0
SEQEND
0
POLYLINE
8
L0D0_0
70
0
40
0.028
41
0.028
66
1
0
VERTEX
8
L0D0_0
10
2.726
20
9.36
0
VERTEX
8
L0D0_0
10
2.736
20
9.358
0
VERTEX
8
L0D0_0
10
2.767
20
9.354
0
VERTEX
8
L0D0_0
10
2.816
20
9.352
0
VERTEX
8
L0D0_0
10
2.864
20
9.353
0
VERTEX
8
L0D0_0
10
2.895
20
9.355
0
VERTEX
8
L0D0_0
10
2.905
20
9.357
0
SEQEND
0
POLYLINE
8
L0D0_0
70
0
40
0.028
41
0.028
66
1
0
VERTEX
8
L0D0_0
10
2.905
20
9.357
0
VERTEX
8
L0D0_0
10
2.908
20
9.357
0
VERTEX
8
L0D0_0
10
2.918
20
9.364
0
VERTEX
8
L0D0_0
10
2.923
20
9.374
0
VERTEX
8
L0D0_0
10
2.923
20
9.377
0
SEQEND
0
POLYLINE
8
L0D0_0
70
0
40
0.028
41
0.028
66
1
0
VERTEX
8
L0D0_0
10
2.923
20
9.457
0
VERTEX
8
L0D0_0
10
2.923
20
9.377
0
SEQEND
0
POLYLINE
8
L0D0_0
70
0
40
0.028
41
0.028
66
1
0
VERTEX
8
L0D0_0
10
2.923
20
9.457
0
VERTEX
8
L0D0_0
10
2.923
20
9.46
0
VERTEX
8
L0D0_0
10
2.917
20
9.471
0
VERTEX
8
L0D0_0
10
2.906
20
9.476
0
VERTEX
8
L0D0_0
10
2.903
20
9.476
0
SEQEND
0
POLYLINE
8
L0D0_0
70
0
40
0.028
41
0.028
66
1
0
VERTEX
8
L0D0_0
10
2.726
20
9.476
0
VERTEX
8
L0D0_0
10
2.903
20
9.476
0
SEQEND
0
POLYLINE
8
L0D0_0
70
0
40
0.028
41
0.028
66
1
0
VERTEX
8
L0D0_0
10
2.726
20
9.508
0
VERTEX
8
L0D0_0
10
2.723
20
9.508
0
VERTEX
8
L0D0_0
10
2.715
20
9.503
0
VERTEX
8
L0D0_0
10
2.71
20
9.495
0
VERTEX
8
L0D0_0
10
2.71
20
9.492
0
VERTEX
8
L0D0_0
10
2.71
20
9.489
0
VERTEX
8
L0D0_0
10
2.715
20
9.481
0
VERTEX
8
L0D0_0
10
2.723
20
9.476
0
VERTEX
8
L0D0_0
10
2.726
20
9.476
0
SEQEND
0
POLYLINE
8
L0D0_0
70
0
40
0.028
41
0.028
66
1
0
VERTEX
8
L0D0_0
10
2.726
20
9.508
0
VERTEX
8
L0D0_0
10
2.903
20
9.508
0
SEQEND
0
POLYLINE
8
L0D0_0
70
0
40
0.028
41
0.028
66
1
0
VERTEX
8
L0D0_0
10
2.903
20
9.508
0
VERTEX
8
L0D0_0
10
2.906
20
9.508
0
VERTEX
8
L0D0_0
10
2.917
20
9.514
0
VERTEX
8
L0D0_0
10
2.923
20
9.524
0
VERTEX
8
L0D0_0
10
2.923
20
9.528
0
SEQEND
0
POLYLINE
8
L0D0_0
70
0
40
0.028
41
0.028
66
1
0
VERTEX
8
L0D0_0
10
2.923
20
9.528
0
VERTEX
8
L0D0_0
10
2.923
20
9.608
0
SEQEND
0
POLYLINE
8
L0D0_0
70
0
40
0.028
41
0.028
66
1
0
VERTEX
8
L0D0_0
10
2.923
20
9.608
0
VERTEX
8
L0D0_0
10
2.923
20
9.61
0
VERTEX
8
L0D0_0
10
2.918
20
9.621
0
VERTEX
8
L0D0_0
10
2.908
20
9.627
0
VERTEX
8
L0D0_0
10
2.905
20
9.627
0
SEQEND
0
POLYLINE
8
L0D0_0
70
0
40
0.028
41
0.028
66
1
0
VERTEX
8
L0D0_0
10
2.905
20
9.627
0
VERTEX
8
L0D0_0
10
2.895
20
9.629
0
VERTEX
8
L0D0_0
10
2.864
20
9.632
0
VERTEX
8
L0D0_0
10
2.816
20
9.633
0
VERTEX
8
L0D0_0
10
2.767
20
9.63
0
VERTEX
8
L0D0_0
10
2.736
20
9.627
0
VERTEX
8
L0D0_0
10
2.726
20
9.625
0
SEQEND
0
POLYLINE
8
L0D0_0
70
0
40
0.028
41
0.028
66
1
0
VERTEX
8
L0D0_0
10
2.726
20
9.656
0
VERTEX
8
L0D0_0
10
2.723
20
9.656
0
VERTEX
8
L0D0_0
10
2.715
20
9.652
0
VERTEX
8
L0D0_0
10
2.71
20
9.643
0
VERTEX
8
L0D0_0
10
2.71
20
9.641
0
VERTEX
8
L0D0_0
10
2.71
20
9.638
0
VERTEX
8
L0D0_0
10
2.715
20
9.629
0
VERTEX
8
L0D0_0
10
2.723
20
9.625
0
VERTEX
8
L0D0_0
10
2.726
20
9.625
0
SEQEND
0
POLYLINE
8
L0D0_0
70
0
40
0.028
41
0.028
66
1
0
VERTEX
8
L0D0_0
10
1.872
20
9.71
0
VERTEX
8
L0D0_0
10
1.874
20
9.71
0
VERTEX
8
L0D0_0
10
1.884
20
9.717
0
VERTEX
8
L0D0_0
10
1.889
20
9.727
0
VERTEX
8
L0D0_0
10
1.889
20
9.73
0
SEQEND
0
POLYLINE
8
L0D0_0
70
0
40
0.028
41
0.028
66
1
0
VERTEX
8
L0D0_0
10
1.692
20
9.861
0
VERTEX
8
L0D0_0
10
1.689
20
9.861
0
VERTEX
8
L0D0_0
10
1.681
20
9.856
0
VERTEX
8
L0D0_0
10
1.676
20
9.848
0
VERTEX
8
L0D0_0
10
1.676
20
9.845
0
VERTEX
8
L0D0_0
10
1.676
20
9.843
0
VERTEX
8
L0D0_0
10
1.681
20
9.834
0
VERTEX
8
L0D0_0
10
1.689
20
9.83
0
VERTEX
8
L0D0_0
10
1.692
20
9.83
0
SEQEND
0
POLYLINE
8
L0D0_0
70
0
40
0.028
41
0.028
66
1
0
VERTEX
8
L0D0_0
10
1.692
20
9.861
0
VERTEX
8
L0D0_0
10
1.869
20
9.861
0
SEQEND
0
POLYLINE
8
L0D0_0
70
0
40
0.028
41
0.028
66
1
0
VERTEX
8
L0D0_0
10
1.869
20
9.861
0
VERTEX
8
L0D0_0
10
1.873
20
9.861
0
VERTEX
8
L0D0_0
10
1.883
20
9.867
0
VERTEX
8
L0D0_0
10
1.889
20
9.877
0
VERTEX
8
L0D0_0
10
1.889
20
9.881
0
SEQEND
0
POLYLINE
8
L0D0_0
70
0
40
0.028
41
0.028
66
1
0
VERTEX
8
L0D0_0
10
1.889
20
9.881
0
VERTEX
8
L0D0_0
10
1.889
20
9.961
0
SEQEND
0
POLYLINE
8
L0D0_0
70
0
40
0.028
41
0.028
66
1
0
VERTEX
8
L0D0_0
10
1.889
20
9.961
0
VERTEX
8
L0D0_0
10
1.889
20
9.963
0
VERTEX
8
L0D0_0
10
1.884
20
9.974
0
VERTEX
8
L0D0_0
10
1.874
20
9.98
0
VERTEX
8
L0D0_0
10
1.872
20
9.98
0
SEQEND
0
POLYLINE
8
L0D0_0
70
0
40
0.028
41
0.028
66
1
0
VERTEX
8
L0D0_0
10
1.872
20
9.98
0
VERTEX
8
L0D0_0
10
1.861
20
9.982
0
VERTEX
8
L0D0_0
10
1.83
20
9.985
0
VERTEX
8
L0D0_0
10
1.782
20
9.986
0
VERTEX
8
L0D0_0
10
1.733
20
9.983
0
VERTEX
8
L0D0_0
10
1.702
20
9.98
0
VERTEX
8
L0D0_0
10
1.692
20
9.978
0
SEQEND
0
POLYLINE
8
L0D0_0
70
0
40
0.028
41
0.028
66
1
0
VERTEX
8
L0D0_0
10
1.692
20
10.009
0
VERTEX
8
L0D0_0
10
1.689
20
10.009
0
VERTEX
8
L0D0_0
10
1.681
20
10.005
0
VERTEX
8
L0D0_0
10
1.676
20
9.996
0
VERTEX
8
L0D0_0
10
1.676
20
9.994
0
VERTEX
8
L0D0_0
10
1.676
20
9.991
0
VERTEX
8
L0D0_0
10
1.681
20
9.983
0
VERTEX
8
L0D0_0
10
1.689
20
9.978
0
VERTEX
8
L0D0_0
10
1.692
20
9.978
0
SEQEND
0
POLYLINE
8
L0D0_0
70
0
40
0.028
41
0.028
66
1
0
VERTEX
8
L0D0_0
10
1.692
20
10.009
0
VERTEX
8
L0D0_0
10
1.692
20
10.22
0
SEQEND
0
POLYLINE
8
L0D0_0
70
0
40
0.028
41
0.028
66
1
0
VERTEX
8
L0D0_0
10
1.889
20
9.81
0
VERTEX
8
L0D0_0
10
1.889
20
9.73
0
SEQEND
0
POLYLINE
8
L0D0_0
70
0
40
0.028
41
0.028
66
1
0
VERTEX
8
L0D0_0
10
1.889
20
9.81
0
VERTEX
8
L0D0_0
10
1.889
20
9.813
0
VERTEX
8
L0D0_0
10
1.883
20
9.824
0
VERTEX
8
L0D0_0
10
1.873
20
9.83
0
VERTEX
8
L0D0_0
10
1.869
20
9.83
0
SEQEND
0
POLYLINE
8
L0D0_0
70
0
40
0.028
41
0.028
66
1
0
VERTEX
8
L0D0_0
10
1.692
20
9.83
0
VERTEX
8
L0D0_0
10
1.869
20
9.83
0
SEQEND
0
ENDSEC
0
EOF
